# xmcd
#
# Track frame offsets: 
#        150
#        5952
#        22912
#        40492
#        57085
#        73967
#        93927
#        110797
#        126934
#        143679
#        171241
#        187793
#        193702
#
# Disc length: 2804 seconds
#
# Revision: 0
# Processed by: cddbd v1.5.2PL0 Copyright (c) Steve Scherf et al.
# Submitted via: ExactAudioCopy v0.95b4
#
DISCID=b90af20d
DTITLE=Will Star - Will Star
DYEAR=2004
DGENRE=R&B
TTITLE0=Long Time Coming(Acapella)
TTITLE1=Must Be You
TTITLE2=No
TTITLE3=Strictly 4 The Hood
TTITLE4=Cumthru
TTITLE5=Ones We Hurt
TTITLE6=Coat Check
TTITLE7=Lay Down
TTITLE8=Greedy
TTITLE9=Whatever You Want
TTITLE10=Whatchatrynasay
TTITLE11=On Tour(Skit)
TTITLE12=Strictly 4 Da Hood (Calvin Vino Loudey)
EXTD=
EXTT0=
EXTT1=
EXTT2=
EXTT3=
EXTT4=
EXTT5=
EXTT6=
EXTT7=
EXTT8=
EXTT9=
EXTT10=
EXTT11=
EXTT12=
PLAYORDER=
